<?xml version="1.0" encoding="utf-8"?>
<svg version="1.1" id="Layer_1" xmlns="http://www.w3.org/2000/svg" xmlns:xlink="http://www.w3.org/1999/xlink" x="0px" y="0px"
	 width="432px" height="432px" viewBox="0 0 432 432" enable-background="new 0 0 432 432" xml:space="preserve">
<g>
	<path fill="#14f195" d="M381.177,160.961c6.627,0,12-5.373,12-12v-6.883c0-6.627-5.373-12-12-12H303V51.902c0-6.627-5.373-12-12-12h-6.883
		c-6.627,0-12,5.373-12,12v78.176h-40.254V51.902c0-6.627-5.373-12-12-12h-6.883c-6.627,0-12,5.373-12,12v78.176h-42.176V51.902
		c0-6.627-5.373-12-12-12h-6.883c-6.627,0-12,5.373-12,12v78.176H51.745c-6.627,0-12,5.373-12,12v6.883c0,6.627,5.373,12,12,12
		h76.177v40.254H51.745c-6.627,0-12,5.373-12,12v6.882c0,6.628,5.373,12,12,12h76.177v42.176H51.745c-6.627,0-12,5.373-12,12v6.883
		c0,6.628,5.373,12,12,12h76.177v76.178c0,6.627,5.373,12,12,12h6.883c6.627,0,12-5.373,12-12v-76.178h42.176v76.178
		c0,6.627,5.373,12,12,12h6.883c6.627,0,12-5.373,12-12v-76.178h40.254v76.178c0,6.627,5.373,12,12,12H291c6.627,0,12-5.373,12-12
		v-76.178h78.177c6.627,0,12-5.372,12-12v-6.883c0-6.627-5.373-12-12-12H303v-42.176h78.177c6.627,0,12-5.372,12-12v-6.882
		c0-6.627-5.373-12-12-12H303v-40.254H381.177z M158.805,160.961h42.176v40.254h-42.176V160.961z M158.805,274.273v-42.176h42.176
		v42.176H158.805z M272.117,274.273h-40.254v-42.176h40.254V274.273z M272.117,201.215h-40.254v-40.254h40.254V201.215z"/>
	<path fill="#FFFFFF" stroke="#14f195" stroke-width="12" stroke-miterlimit="10" d="M353.745,335.751
		c0,10.176-8.25,18.426-18.426,18.426H96.681c-10.177,0-18.426-8.25-18.426-18.426V97.113c0-10.177,8.25-18.426,18.426-18.426
		h238.638c10.176,0,18.426,8.25,18.426,18.426V335.751z"/>
	<path fill="#14f195" stroke="#FFFFFF" stroke-width="8" stroke-miterlimit="10" d="M305.706,294.138c0,6.627-5.373,12-12,12
		H138.294c-6.627,0-12-5.373-12-12V138.726c0-6.627,5.373-12,12-12h155.412c6.627,0,12,5.373,12,12V294.138z"/>
</g>
</svg>
